<svg xmlns="http://www.w3.org/2000/svg" viewBox="0 0 486 100" fill="none" stroke="currentColor" stroke-width="9" stroke-linecap="square" stroke-linejoin="miter" role="img" aria-label="MONO"><g><path d="M50 10l18 18-18 18-18-18zM50 46l18 18-18 18-18-18z"/><path d="M14 28l14 14-14 14zM86 28L72 42l14 14z"/></g><path d="M6 95.5V4.5L42 64L78 4.5V95.5" transform="translate(134 0)"/><path d="M36 4.5A30 45.5 0 1 1 35.9 4.5" transform="translate(236 0)"/><path d="M6 95.5V4.5L64 95.5V4.5" transform="translate(326 0)"/><path d="M36 4.5A30 45.5 0 1 1 35.9 4.5" transform="translate(414 0)"/></svg>
